<?xml version="1.0"?>
<svg xmlns="http://www.w3.org/2000/svg" xmlnsxlink="http://www.w3.org/1999/xlink" xmlnssvgjs="http://svgjs.com/svgjs" version="1.1" width="512" height="512" x="0" y="0" viewBox="0 0 512 512" style="enable-background:new 0 0 512 512" xmlspace="preserve" class=""><g>
<g xmlns="http://www.w3.org/2000/svg">
	<g>
		<rect x="117.333" y="64" width="106.667" height="21.333" fill="#5a5a5a" data-original="#000000" style="" class=""/>
	</g>
</g>
<g xmlns="http://www.w3.org/2000/svg">
	<g>
		<rect x="117.333" y="106.667" width="21.333" height="21.333" fill="#5a5a5a" data-original="#000000" style="" class=""/>
	</g>
</g>
<g xmlns="http://www.w3.org/2000/svg">
	<g>
		<rect x="160" y="106.667" width="21.333" height="21.333" fill="#5a5a5a" data-original="#000000" style="" class=""/>
	</g>
</g>
<g xmlns="http://www.w3.org/2000/svg">
	<g>
		<path d="M455.541,88.459L370.208,3.125c-2-2-4.713-3.125-7.541-3.125H85.333c-17.673,0-32,14.327-32,32v448    c0,17.673,14.327,32,32,32h341.333c17.673,0,32-14.327,32-32V96C458.666,93.171,457.542,90.459,455.541,88.459z M437.333,480    c0,5.891-4.776,10.667-10.667,10.667H85.333c-5.891,0-10.667-4.776-10.667-10.667V32c0-5.891,4.776-10.667,10.667-10.667    l272.917,0l79.083,79.083V480z" fill="#5a5a5a" data-original="#000000" style="" class=""/>
	</g>
</g>
<g xmlns="http://www.w3.org/2000/svg">
	<g>
		<path d="M384,85.333c-5.891,0-10.667-4.776-10.667-10.667v-64H352v64c0,17.673,14.327,32,32,32h21.333V85.333H384z" fill="#5a5a5a" data-original="#000000" style="" class=""/>
	</g>
</g>
<g xmlns="http://www.w3.org/2000/svg">
	<g>
		<path d="M384,405.333H160V202.667c0-5.891-4.776-10.667-10.667-10.667h-32v21.333h21.333V416c0,5.891,4.776,10.667,10.667,10.667    h224V448h21.333v-32C394.667,410.109,389.891,405.333,384,405.333z" fill="#5a5a5a" data-original="#000000" style="" class=""/>
	</g>
</g>
<g xmlns="http://www.w3.org/2000/svg">
	<g>
		<path d="M234.667,224H192c-5.891,0-10.667,4.776-10.667,10.667V384h21.333V245.333H224V384h21.333V234.667    C245.333,228.776,240.558,224,234.667,224z" fill="#5a5a5a" data-original="#000000" style="" class=""/>
	</g>
</g>
<g xmlns="http://www.w3.org/2000/svg">
	<g>
		<path d="M277.333,181.333h-42.667c-5.891,0-10.667,4.776-10.667,10.667v192h21.333V202.667h21.333v138.667H288V192    C288,186.109,283.224,181.333,277.333,181.333z" fill="#5a5a5a" data-original="#000000" style="" class=""/>
	</g>
</g>
<g xmlns="http://www.w3.org/2000/svg">
	<g>
		<path d="M320,288h-42.667c-5.891,0-10.667,4.776-10.667,10.667V384H288v-74.667h21.333V384h21.333v-85.333    C330.667,292.776,325.891,288,320,288z" fill="#5a5a5a" data-original="#000000" style="" class=""/>
	</g>
</g>
<g xmlns="http://www.w3.org/2000/svg">
	<g>
		<path d="M362.667,245.333H320c-5.891,0-10.667,4.776-10.667,10.667v128h21.333V266.667H352V384h21.333V256    C373.333,250.109,368.558,245.333,362.667,245.333z" fill="#5a5a5a" data-original="#000000" style="" class=""/>
	</g>
</g>
<g xmlns="http://www.w3.org/2000/svg">
</g>
<g xmlns="http://www.w3.org/2000/svg">
</g>
<g xmlns="http://www.w3.org/2000/svg">
</g>
<g xmlns="http://www.w3.org/2000/svg">
</g>
<g xmlns="http://www.w3.org/2000/svg">
</g>
<g xmlns="http://www.w3.org/2000/svg">
</g>
<g xmlns="http://www.w3.org/2000/svg">
</g>
<g xmlns="http://www.w3.org/2000/svg">
</g>
<g xmlns="http://www.w3.org/2000/svg">
</g>
<g xmlns="http://www.w3.org/2000/svg">
</g>
<g xmlns="http://www.w3.org/2000/svg">
</g>
<g xmlns="http://www.w3.org/2000/svg">
</g>
<g xmlns="http://www.w3.org/2000/svg">
</g>
<g xmlns="http://www.w3.org/2000/svg">
</g>
<g xmlns="http://www.w3.org/2000/svg">
</g>
<script/></g></svg>
